<svg xmlns="http://www.w3.org/2000/svg" viewBox="0 0 96 96" width="96" height="96">
  <!-- Icon-only marker (no gyro outline) - 3x larger -->
  
<!-- Drop shadow for depth -->
  <ellipse cx="48.0" cy="90" rx="19.2" ry="6.0" fill="#000" opacity="0.3"/>
  
  <!-- Icon content scaled 3x and centered -->
  <g transform="translate(0.0, 3.0) scale(3)">
<!-- Lucide icon (scaled and positioned) -->
  <g transform="translate(16, 15) scale(0.5)" stroke="#D689B8" fill="none" stroke-width="2" stroke-linecap="round" stroke-linejoin="round">
    <g transform="translate(-12, -12)">
<path d="M12 10h.01" />
  <path d="M12 14h.01" />
  <path d="M12 6h.01" />
  <path d="M16 10h.01" />
  <path d="M16 14h.01" />
  <path d="M16 6h.01" />
  <path d="M8 10h.01" />
  <path d="M8 14h.01" />
  <path d="M8 6h.01" />
  <path d="M9 22v-3a1 1 0 0 1 1-1h4a1 1 0 0 1 1 1v3" />
  <rect x="4" y="2" width="16" height="20" rx="2" />
    </g>
  </g>
  </g>
</svg>