<svg xmlns="http://www.w3.org/2000/svg" viewBox="0 0 96 96" width="96" height="96">
  <!-- Icon-only marker (no gyro outline) - 3x larger -->
  
<!-- Drop shadow for depth -->
  <ellipse cx="48.0" cy="90" rx="19.2" ry="6.0" fill="#000" opacity="0.3"/>
  
  <!-- Icon content scaled 3x and centered -->
  <g transform="translate(0.0, 3.0) scale(3)">
<!-- Large thatched house pin -->
  <path d="M6 14 Q6 8 16 8 Q26 8 26 14 L26 20 L18 20 L16 46 L14 20 L6 20 Z" 
        fill="none" stroke="#D689B8" stroke-width="2"/>
  
  <!-- Thatched roof pattern -->
  <path d="M8 10 Q12 9 16 9 Q20 9 24 10" 
        fill="none" stroke="#D689B8" stroke-width="1"/>
  <path d="M8 12 Q12 11 16 11 Q20 11 24 12" 
        fill="none" stroke="#D689B8" stroke-width="1"/>
  
  <!-- Support poles -->
  <line x1="10" y1="14" x2="10" y2="20" stroke="#D689B8" stroke-width="1"/>
  <line x1="16" y1="14" x2="16" y2="20" stroke="#D689B8" stroke-width="1"/>
  <line x1="22" y1="14" x2="22" y2="20" stroke="#D689B8" stroke-width="1"/>
  
  <!-- Entrance -->
  <path d="M14 16 Q14 15 16 15 Q18 15 18 16 L18 20 L14 20" 
        fill="none" stroke="#D689B8" stroke-width="1.5"/>
  
  <!-- Ceremonial patterns -->
  <circle cx="12" cy="17" r="1" fill="none" stroke="#D689B8" stroke-width="0.5"/>
  <circle cx="20" cy="17" r="1" fill="none" stroke="#D689B8" stroke-width="0.5"/>
  </g>
</svg>