<svg xmlns="http://www.w3.org/2000/svg" viewBox="0 0 96 96" width="96" height="96">
  <!-- Icon-only marker (no gyro outline) - 3x larger -->
  
<!-- Drop shadow for depth -->
  <ellipse cx="48.0" cy="90" rx="19.2" ry="6.0" fill="#000" opacity="0.3"/>
  
  <!-- Icon content scaled 3x and centered -->
  <g transform="translate(0.0, 3.0) scale(3)">
<!-- Octagon pin shape (8 sides) -->
  <path d="M10 4 L22 4 L26 8 L26 20 L20 20 L16 46 L12 20 L6 20 L6 8 Z" 
        fill="none" stroke="#D689B8" stroke-width="2"/>
  
  <!-- Inner octagon -->
  <path d="M11 7 L21 7 L24 10 L24 17 L21 17 L16 17 L11 17 L8 14 L8 10 Z" 
        fill="none" stroke="#D689B8" stroke-width="1.5"/>
  
  <!-- Crosshair targeting center -->
  <circle cx="16" cy="12" r="4" fill="none" stroke="#D689B8" stroke-width="1"/>
  <line x1="16" y1="8" x2="16" y2="10" stroke="#D689B8" stroke-width="1"/>
  <line x1="16" y1="14" x2="16" y2="16" stroke="#D689B8" stroke-width="1"/>
  <line x1="12" y1="12" x2="14" y2="12" stroke="#D689B8" stroke-width="1"/>
  <line x1="18" y1="12" x2="20" y2="12" stroke="#D689B8" stroke-width="1"/>
  <circle cx="16" cy="12" r="1" fill="#D689B8"/>
  </g>
</svg>