<svg xmlns="http://www.w3.org/2000/svg" viewBox="0 0 96 96" width="96" height="96">
  <!-- Icon-only marker (no gyro outline) - 3x larger -->
  
<!-- Drop shadow for depth -->
  <ellipse cx="48.0" cy="90" rx="19.2" ry="6.0" fill="#000" opacity="0.3"/>
  
  <!-- Icon content scaled 3x and centered -->
  <g transform="translate(0.0, 3.0) scale(3)">
<!-- Lucide icon (scaled and positioned) -->
  <g transform="translate(16, 15) scale(0.5)" stroke="#D689B8" fill="none" stroke-width="2" stroke-linecap="round" stroke-linejoin="round">
    <g transform="translate(-12, -12)">
<path d="M17 11h1a3 3 0 0 1 0 6h-1" />
  <path d="M9 12v6" />
  <path d="M13 12v6" />
  <path d="M14 7.5c-1 0-1.44.5-3 .5s-2-.5-3-.5-1.72.5-2.5.5a2.5 2.5 0 0 1 0-5c.78 0 1.57.5 2.5.5S9.44 2 11 2s2 1.5 3 1.5 1.72-.5 2.5-.5a2.5 2.5 0 0 1 0 5c-.78 0-1.5-.5-2.5-.5Z" />
  <path d="M5 8v12a2 2 0 0 0 2 2h8a2 2 0 0 0 2-2V8" />
    </g>
  </g>
  </g>
</svg>