<svg xmlns="http://www.w3.org/2000/svg" viewBox="0 0 96 96" width="96" height="96">
  <!-- Icon-only marker (no gyro outline) - 3x larger -->
  
<!-- Drop shadow for depth -->
  <ellipse cx="48.0" cy="90" rx="19.2" ry="6.0" fill="#000" opacity="0.3"/>
  
  <!-- Icon content scaled 3x and centered -->
  <g transform="translate(0.0, 3.0) scale(3)">
<!-- Lucide icon (scaled and positioned) -->
  <g transform="translate(16, 15) scale(0.5)" stroke="#D689B8" fill="none" stroke-width="2" stroke-linecap="round" stroke-linejoin="round">
    <g transform="translate(-12, -12)">
<path d="M12 7v14" />
  <path d="M3 18a1 1 0 0 1-1-1V4a1 1 0 0 1 1-1h5a4 4 0 0 1 4 4 4 4 0 0 1 4-4h5a1 1 0 0 1 1 1v13a1 1 0 0 1-1 1h-6a3 3 0 0 0-3 3 3 3 0 0 0-3-3z" />
    </g>
  </g>
  </g>
</svg>