<svg xmlns="http://www.w3.org/2000/svg" viewBox="0 0 96 96" width="96" height="96">
  <!-- Icon-only marker (no gyro outline) - 3x larger -->
  
<!-- Drop shadow for depth -->
  <ellipse cx="48.0" cy="90" rx="19.2" ry="6.0" fill="#000" opacity="0.3"/>
  
  <!-- Icon content scaled 3x and centered -->
  <g transform="translate(0.0, 3.0) scale(3)">
<!-- Building pin -->
  <path d="M9 6 L23 6 L23 20 L18 20 L16 46 L14 20 L9 20 Z" 
        fill="none" stroke="#D689B8" stroke-width="2"/>
  
  <!-- Building windows -->
  <rect x="11" y="9" width="2" height="2" fill="none" stroke="#D689B8" stroke-width="1"/>
  <rect x="15" y="9" width="2" height="2" fill="none" stroke="#D689B8" stroke-width="1"/>
  <rect x="19" y="9" width="2" height="2" fill="none" stroke="#D689B8" stroke-width="1"/>
  <rect x="11" y="13" width="2" height="2" fill="none" stroke="#D689B8" stroke-width="1"/>
  <rect x="15" y="13" width="2" height="2" fill="none" stroke="#D689B8" stroke-width="1"/>
  <rect x="19" y="13" width="2" height="2" fill="none" stroke="#D689B8" stroke-width="1"/>
  
  <!-- Flag pole -->
  <line x1="11" y1="6" x2="11" y2="2" stroke="#D689B8" stroke-width="1.5"/>
  
  <!-- Flag -->
  <path d="M11 2 L17 2 L17 5 L14 4 L17 3 L11 3 Z" 
        fill="none" stroke="#D689B8" stroke-width="1"/>
  </g>
</svg>