<svg xmlns="http://www.w3.org/2000/svg" viewBox="0 0 96 96" width="96" height="96">
  <!-- Icon-only marker (no gyro outline) - 3x larger -->
  
<!-- Drop shadow for depth -->
  <ellipse cx="48.0" cy="90" rx="19.2" ry="6.0" fill="#000" opacity="0.3"/>
  
  <!-- Icon content scaled 3x and centered -->
  <g transform="translate(0.0, 3.0) scale(3)">
<!-- Lucide icon (scaled and positioned) -->
  <g transform="translate(16, 15) scale(0.5)" stroke="#D689B8" fill="none" stroke-width="2" stroke-linecap="round" stroke-linejoin="round">
    <g transform="translate(-12, -12)">
<path d="M10 11h.01" />
  <path d="M14 6h.01" />
  <path d="M18 6h.01" />
  <path d="M6.5 13.1h.01" />
  <path d="M22 5c0 9-4 12-6 12s-6-3-6-12c0-2 2-3 6-3s6 1 6 3" />
  <path d="M17.4 9.9c-.8.8-2 .8-2.8 0" />
  <path d="M10.1 7.1C9 7.2 7.7 7.7 6 8.6c-3.5 2-4.7 3.9-3.7 5.6 4.5 7.8 9.5 8.4 11.2 7.4.9-.5 1.9-2.1 1.9-4.7" />
  <path d="M9.1 16.5c.3-1.1 1.4-1.7 2.4-1.4" />
    </g>
  </g>
  </g>
</svg>