<svg xmlns="http://www.w3.org/2000/svg" viewBox="0 0 96 96" width="96" height="96">
  <!-- Icon-only marker (no gyro outline) - 3x larger -->
  
<!-- Drop shadow for depth -->
  <ellipse cx="48.0" cy="90" rx="19.2" ry="6.0" fill="#000" opacity="0.3"/>
  
  <!-- Icon content scaled 3x and centered -->
  <g transform="translate(0.0, 3.0) scale(3)">
<!-- Lucide icon (scaled and positioned) -->
  <g transform="translate(16, 15) scale(0.5)" stroke="#D689B8" fill="none" stroke-width="2" stroke-linecap="round" stroke-linejoin="round">
    <g transform="translate(-12, -12)">
<path d="M10 22V7a1 1 0 0 0-1-1H4a2 2 0 0 0-2 2v12a2 2 0 0 0 2 2h12a2 2 0 0 0 2-2v-5a1 1 0 0 0-1-1H2" />
  <rect x="14" y="2" width="8" height="8" rx="1" />
    </g>
  </g>
  </g>
</svg>