<svg xmlns="http://www.w3.org/2000/svg" viewBox="0 0 96 96" width="96" height="96">
  <!-- Icon-only marker (no gyro outline) - 3x larger -->
  
<!-- Drop shadow for depth -->
  <ellipse cx="48.0" cy="90" rx="19.2" ry="6.0" fill="#000" opacity="0.3"/>
  
  <!-- Icon content scaled 3x and centered -->
  <g transform="translate(0.0, 3.0) scale(3)">
<!-- Lucide icon (scaled and positioned) -->
  <g transform="translate(16, 15) scale(0.5)" stroke="#D689B8" fill="none" stroke-width="2" stroke-linecap="round" stroke-linejoin="round">
    <g transform="translate(-12, -12)">
<path d="M10 9h4" />
  <path d="M12 7v5" />
  <path d="M14 21v-3a2 2 0 0 0-4 0v3" />
  <path d="m18 9 3.52 2.147a1 1 0 0 1 .48.854V19a2 2 0 0 1-2 2H4a2 2 0 0 1-2-2v-6.999a1 1 0 0 1 .48-.854L6 9" />
  <path d="M6 21V7a1 1 0 0 1 .376-.782l5-3.999a1 1 0 0 1 1.249.001l5 4A1 1 0 0 1 18 7v14" />
    </g>
  </g>
  </g>
</svg>