<svg xmlns="http://www.w3.org/2000/svg" viewBox="0 0 96 96" width="96" height="96">
  <!-- Icon-only marker (no gyro outline) - 3x larger -->
  
<!-- Drop shadow for depth -->
  <ellipse cx="48.0" cy="90" rx="19.2" ry="6.0" fill="#000" opacity="0.3"/>
  
  <!-- Icon content scaled 3x and centered -->
  <g transform="translate(0.0, 3.0) scale(3)">
<!-- Longhouse pin - barrel roof -->
  <path d="M8 18 Q8 10 16 10 Q24 10 24 18 L24 20 L18 20 L16 46 L14 20 L8 20 Z" 
        fill="none" stroke="#D689B8" stroke-width="2"/>
  
  <!-- Roof structure -->
  <path d="M10 12 Q12 11 16 11 Q20 11 22 12" 
        fill="none" stroke="#D689B8" stroke-width="1"/>
  <path d="M10 14 Q12 13 16 13 Q20 13 22 14" 
        fill="none" stroke="#D689B8" stroke-width="1"/>
  <path d="M10 16 Q12 15 16 15 Q20 15 22 16" 
        fill="none" stroke="#D689B8" stroke-width="1"/>
  
  <!-- Entrance -->
  <path d="M15 16 L15 20 L17 20 L17 16" 
        fill="none" stroke="#D689B8" stroke-width="1.5"/>
  
  <!-- Smoke hole -->
  <circle cx="16" cy="12" r="1" fill="none" stroke="#D689B8" stroke-width="1"/>
  </g>
</svg>