<svg xmlns="http://www.w3.org/2000/svg" viewBox="0 0 96 96" width="96" height="96">
  <!-- Icon-only marker (no gyro outline) - 3x larger -->
  
<!-- Drop shadow for depth -->
  <ellipse cx="48.0" cy="90" rx="19.2" ry="6.0" fill="#000" opacity="0.3"/>
  
  <!-- Icon content scaled 3x and centered -->
  <g transform="translate(0.0, 3.0) scale(3)">
<!-- Lucide icon (scaled and positioned) -->
  <g transform="translate(16, 15) scale(0.5)" stroke="#D689B8" fill="none" stroke-width="2" stroke-linecap="round" stroke-linejoin="round">
    <g transform="translate(-12, -12)">
<path d="M10 14.66v1.626a2 2 0 0 1-.976 1.696A5 5 0 0 0 7 21.978" />
  <path d="M14 14.66v1.626a2 2 0 0 0 .976 1.696A5 5 0 0 1 17 21.978" />
  <path d="M18 9h1.5a1 1 0 0 0 0-5H18" />
  <path d="M4 22h16" />
  <path d="M6 9a6 6 0 0 0 12 0V3a1 1 0 0 0-1-1H7a1 1 0 0 0-1 1z" />
  <path d="M6 9H4.5a1 1 0 0 1 0-5H6" />
    </g>
  </g>
  </g>
</svg>