<svg xmlns="http://www.w3.org/2000/svg" viewBox="0 0 96 96" width="96" height="96">
  <!-- Icon-only marker (no gyro outline) - 3x larger -->
  
<!-- Drop shadow for depth -->
  <ellipse cx="48.0" cy="90" rx="19.2" ry="6.0" fill="#000" opacity="0.3"/>
  
  <!-- Icon content scaled 3x and centered -->
  <g transform="translate(0.0, 3.0) scale(3)">
<!-- Star fortress shape -->
  <path d="M16 6 L18 10 L22 10 L19 13 L20 17 L16 14.5 L12 17 L13 13 L10 10 L14 10 Z" 
        fill="none" stroke="#D689B8" stroke-width="2"/>
  
  <!-- Inner fortification -->
  <path d="M16 9 L17 11 L19 11 L17.5 12.5 L18 14 L16 12.5 L14 14 L14.5 12.5 L13 11 L15 11 Z" 
        fill="none" stroke="#D689B8" stroke-width="1.5"/>
  
  <!-- Pin stem -->
  <path d="M14 18 L16 46 L18 18" 
        fill="none" stroke="#D689B8" stroke-width="2"/>
  
  <!-- Bastions -->
  <line x1="16" y1="17" x2="16" y2="18" stroke="#D689B8" stroke-width="2"/>
  <path d="M12 17 L20 17" fill="none" stroke="#D689B8" stroke-width="1.5"/>
  </g>
</svg>