<svg xmlns="http://www.w3.org/2000/svg" viewBox="0 0 96 96" width="96" height="96">
  <!-- Icon-only marker (no gyro outline) - 3x larger -->
  
<!-- Drop shadow for depth -->
  <ellipse cx="48.0" cy="90" rx="19.2" ry="6.0" fill="#000" opacity="0.3"/>
  
  <!-- Icon content scaled 3x and centered -->
  <g transform="translate(0.0, 3.0) scale(3)">
<!-- Landscape pin -->
  <path d="M6 16 L10 12 L14 14 L16 10 L18 14 L22 12 L26 16 L26 20 L18 20 L16 46 L14 20 L6 20 Z" 
        fill="none" stroke="#D689B8" stroke-width="2"/>
  
  <!-- Songline pattern (connecting paths) -->
  <path d="M8 14 Q12 13 16 12 Q20 13 24 14" 
        fill="none" stroke="#D689B8" stroke-width="1"/>
  
  <!-- U-shapes (sitting people) -->
  <path d="M10 16 L10 18 L11 18 L11 16" fill="none" stroke="#D689B8" stroke-width="1"/>
  <path d="M15 16 L15 18 L16 18 L16 16" fill="none" stroke="#D689B8" stroke-width="1"/>
  <path d="M21 16 L21 18 L22 18 L22 16" fill="none" stroke="#D689B8" stroke-width="1"/>
  
  <!-- Tracks/paths -->
  <line x1="10" y1="17" x2="22" y2="17" stroke="#D689B8" stroke-width="0.5"/>
  
  <!-- Stars/sky elements -->
  <circle cx="12" cy="13" r="0.5" fill="#D689B8"/>
  <circle cx="20" cy="13" r="0.5" fill="#D689B8"/>
  </g>
</svg>