<svg xmlns="http://www.w3.org/2000/svg" viewBox="0 0 32 48" width="32" height="48">
  <!-- Lucide landmark marker - unified gyro shape -->
  
  <!-- Drop shadow -->
  <ellipse cx="16" cy="46" rx="6" ry="2" fill="#000" opacity="0.5"/>
  
  <!-- STANDARD GYRO SHAPE (same for all) -->
  <path d="M16 2 C9 2 3 8 3 15 C3 24 16 46 16 46 C16 46 29 24 29 15 C29 8 23 2 16 2 Z" 
        fill="none" stroke="#00ff00" stroke-width="2"/>
  
  <!-- Lucide icon (scaled and positioned) -->
  <g transform="translate(16, 15) scale(0.5)" stroke="#00ff00" fill="none" stroke-width="2" stroke-linecap="round" stroke-linejoin="round">
    <g transform="translate(-12, -12)">
<path d="M10 18v-7" />
  <path d="M11.12 2.198a2 2 0 0 1 1.76.006l7.866 3.847c.476.233.31.949-.22.949H3.474c-.53 0-.695-.716-.22-.949z" />
  <path d="M14 18v-7" />
  <path d="M18 18v-7" />
  <path d="M3 22h18" />
  <path d="M6 18v-7" />
    </g>
  </g>
</svg>