<svg xmlns="http://www.w3.org/2000/svg" viewBox="0 0 32 48" width="32" height="48">
  <!-- Lucide trophy marker - unified gyro shape -->
  
  <!-- Drop shadow -->
  <ellipse cx="16" cy="46" rx="6" ry="2" fill="#000" opacity="0.5"/>
  
  <!-- STANDARD GYRO SHAPE (same for all) -->
  <path d="M16 2 C9 2 3 8 3 15 C3 24 16 46 16 46 C16 46 29 24 29 15 C29 8 23 2 16 2 Z" 
        fill="none" stroke="#00ff00" stroke-width="2"/>
  
  <!-- Lucide icon (scaled and positioned) -->
  <g transform="translate(16, 15) scale(0.5)" stroke="#00ff00" fill="none" stroke-width="2" stroke-linecap="round" stroke-linejoin="round">
    <g transform="translate(-12, -12)">
<path d="M10 14.66v1.626a2 2 0 0 1-.976 1.696A5 5 0 0 0 7 21.978" />
  <path d="M14 14.66v1.626a2 2 0 0 0 .976 1.696A5 5 0 0 1 17 21.978" />
  <path d="M18 9h1.5a1 1 0 0 0 0-5H18" />
  <path d="M4 22h16" />
  <path d="M6 9a6 6 0 0 0 12 0V3a1 1 0 0 0-1-1H7a1 1 0 0 0-1 1z" />
  <path d="M6 9H4.5a1 1 0 0 1 0-5H6" />
    </g>
  </g>
</svg>