<svg xmlns="http://www.w3.org/2000/svg" viewBox="0 0 32 48" width="32" height="48">
  <!-- Lucide shopping-bag marker - unified gyro shape -->
  
  <!-- Drop shadow -->
  <ellipse cx="16" cy="46" rx="6" ry="2" fill="#000" opacity="0.5"/>
  
  <!-- STANDARD GYRO SHAPE (same for all) -->
  <path d="M16 2 C9 2 3 8 3 15 C3 24 16 46 16 46 C16 46 29 24 29 15 C29 8 23 2 16 2 Z" 
        fill="none" stroke="#00ff00" stroke-width="2"/>
  
  <!-- Lucide icon (scaled and positioned) -->
  <g transform="translate(16, 15) scale(0.5)" stroke="#00ff00" fill="none" stroke-width="2" stroke-linecap="round" stroke-linejoin="round">
    <g transform="translate(-12, -12)">
<path d="M16 10a4 4 0 0 1-8 0" />
  <path d="M3.103 6.034h17.794" />
  <path d="M3.4 5.467a2 2 0 0 0-.4 1.2V20a2 2 0 0 0 2 2h14a2 2 0 0 0 2-2V6.667a2 2 0 0 0-.4-1.2l-2-2.667A2 2 0 0 0 17 2H7a2 2 0 0 0-1.6.8z" />
    </g>
  </g>
</svg>