<svg xmlns="http://www.w3.org/2000/svg" viewBox="0 0 32 48" width="32" height="48">
  <!-- Lucide castle marker - unified gyro shape -->
  
  <!-- Drop shadow -->
  <ellipse cx="16" cy="46" rx="6" ry="2" fill="#000" opacity="0.5"/>
  
  <!-- STANDARD GYRO SHAPE (same for all) -->
  <path d="M16 2 C9 2 3 8 3 15 C3 24 16 46 16 46 C16 46 29 24 29 15 C29 8 23 2 16 2 Z" 
        fill="none" stroke="#00ff00" stroke-width="2"/>
  
  <!-- Lucide icon (scaled and positioned) -->
  <g transform="translate(16, 15) scale(0.5)" stroke="#00ff00" fill="none" stroke-width="2" stroke-linecap="round" stroke-linejoin="round">
    <g transform="translate(-12, -12)">
<path d="M10 5V3" />
  <path d="M14 5V3" />
  <path d="M15 21v-3a3 3 0 0 0-6 0v3" />
  <path d="M18 3v8" />
  <path d="M18 5H6" />
  <path d="M22 11H2" />
  <path d="M22 9v10a2 2 0 0 1-2 2H4a2 2 0 0 1-2-2V9" />
  <path d="M6 3v8" />
    </g>
  </g>
</svg>