<svg xmlns="http://www.w3.org/2000/svg" viewBox="0 0 32 48" width="32" height="48">
  <!-- Terminal style embassy marker - flag on building -->
  
  <!-- Drop shadow -->
  <ellipse cx="16" cy="46" rx="6" ry="2" fill="#000" opacity="0.5"/>
  
  <!-- Building pin -->
  <path d="M9 6 L23 6 L23 20 L18 20 L16 46 L14 20 L9 20 Z" 
        fill="none" stroke="#00ff00" stroke-width="2"/>
  
  <!-- Building windows -->
  <rect x="11" y="9" width="2" height="2" fill="none" stroke="#00ff00" stroke-width="1"/>
  <rect x="15" y="9" width="2" height="2" fill="none" stroke="#00ff00" stroke-width="1"/>
  <rect x="19" y="9" width="2" height="2" fill="none" stroke="#00ff00" stroke-width="1"/>
  <rect x="11" y="13" width="2" height="2" fill="none" stroke="#00ff00" stroke-width="1"/>
  <rect x="15" y="13" width="2" height="2" fill="none" stroke="#00ff00" stroke-width="1"/>
  <rect x="19" y="13" width="2" height="2" fill="none" stroke="#00ff00" stroke-width="1"/>
  
  <!-- Flag pole -->
  <line x1="11" y1="6" x2="11" y2="2" stroke="#00ff00" stroke-width="1.5"/>
  
  <!-- Flag -->
  <path d="M11 2 L17 2 L17 5 L14 4 L17 3 L11 3 Z" 
        fill="none" stroke="#00ff00" stroke-width="1"/>
</svg>
