<svg xmlns="http://www.w3.org/2000/svg" viewBox="0 0 32 48" width="32" height="48">
  <!-- Terminal style city wall marker - fortification -->
  
  <!-- Drop shadow -->
  <ellipse cx="16" cy="46" rx="6" ry="2" fill="#000" opacity="0.5"/>
  
  <!-- Wall pin with battlements -->
  <path d="M6 6 L26 6 L26 8 L24 8 L24 10 L22 10 L22 8 L20 8 L20 10 L18 10 L18 8 L16 8 L16 10 L14 10 L14 8 L12 8 L12 10 L10 10 L10 8 L8 8 L8 10 L6 10 Z M6 10 L6 20 L14 20 L16 46 L18 20 L26 20 L26 10" 
        fill="none" stroke="#00ff00" stroke-width="2"/>
  
  <!-- Stone blocks -->
  <line x1="6" y1="13" x2="26" y2="13" stroke="#00ff00" stroke-width="1"/>
  <line x1="6" y1="16" x2="26" y2="16" stroke="#00ff00" stroke-width="1"/>
  <line x1="10" y1="10" x2="10" y2="20" stroke="#00ff00" stroke-width="1"/>
  <line x1="16" y1="10" x2="16" y2="20" stroke="#00ff00" stroke-width="1"/>
  <line x1="22" y1="10" x2="22" y2="20" stroke="#00ff00" stroke-width="1"/>
  
  <!-- Gate -->
  <path d="M13 16 Q13 14 16 14 Q19 14 19 16 L19 20 L13 20 Z" 
        fill="none" stroke="#00ff00" stroke-width="1.5"/>
</svg>
