<svg xmlns="http://www.w3.org/2000/svg" viewBox="0 0 32 48" width="32" height="48">
  <!-- Terminal style parliament/capitol building marker -->
  
  <!-- Drop shadow -->
  <ellipse cx="16" cy="46" rx="6" ry="2" fill="#000" opacity="0.5"/>
  
  <!-- Capitol dome pin -->
  <path d="M8 14 L24 14 L24 20 L18 20 L16 46 L14 20 L8 20 Z" 
        fill="none" stroke="#00ff00" stroke-width="2"/>
  
  <!-- Dome -->
  <path d="M16 4 Q11 4 11 8 L11 14 L21 14 L21 8 Q21 4 16 4 Z" 
        fill="none" stroke="#00ff00" stroke-width="2"/>
  
  <!-- Dome top/finial -->
  <line x1="16" y1="2" x2="16" y2="4" stroke="#00ff00" stroke-width="2"/>
  <circle cx="16" cy="2" r="1" fill="#00ff00"/>
  
  <!-- Building columns -->
  <line x1="10" y1="14" x2="10" y2="19" stroke="#00ff00" stroke-width="1.5"/>
  <line x1="13" y1="14" x2="13" y2="19" stroke="#00ff00" stroke-width="1.5"/>
  <line x1="19" y1="14" x2="19" y2="19" stroke="#00ff00" stroke-width="1.5"/>
  <line x1="22" y1="14" x2="22" y2="19" stroke="#00ff00" stroke-width="1.5"/>
  
  <!-- Base -->
  <line x1="8" y1="19" x2="24" y2="19" stroke="#00ff00" stroke-width="2"/>
</svg>
