<svg xmlns="http://www.w3.org/2000/svg" viewBox="0 0 32 48" width="32" height="48">
  <!-- Lucide drama marker - unified gyro shape -->
  
  <!-- Drop shadow -->
  <ellipse cx="16" cy="46" rx="6" ry="2" fill="#000" opacity="0.5"/>
  
  <!-- STANDARD GYRO SHAPE (same for all) -->
  <path d="M16 2 C9 2 3 8 3 15 C3 24 16 46 16 46 C16 46 29 24 29 15 C29 8 23 2 16 2 Z" 
        fill="none" stroke="#00ff00" stroke-width="2"/>
  
  <!-- Lucide icon (scaled and positioned) -->
  <g transform="translate(16, 15) scale(0.5)" stroke="#00ff00" fill="none" stroke-width="2" stroke-linecap="round" stroke-linejoin="round">
    <g transform="translate(-12, -12)">
<path d="M10 11h.01" />
  <path d="M14 6h.01" />
  <path d="M18 6h.01" />
  <path d="M6.5 13.1h.01" />
  <path d="M22 5c0 9-4 12-6 12s-6-3-6-12c0-2 2-3 6-3s6 1 6 3" />
  <path d="M17.4 9.9c-.8.8-2 .8-2.8 0" />
  <path d="M10.1 7.1C9 7.2 7.7 7.7 6 8.6c-3.5 2-4.7 3.9-3.7 5.6 4.5 7.8 9.5 8.4 11.2 7.4.9-.5 1.9-2.1 1.9-4.7" />
  <path d="M9.1 16.5c.3-1.1 1.4-1.7 2.4-1.4" />
    </g>
  </g>
</svg>