<svg xmlns="http://www.w3.org/2000/svg" viewBox="0 0 32 48" width="32" height="48">
  <!-- Terminal style Dreamtime site marker - sacred landscape -->
  
  <!-- Drop shadow -->
  <ellipse cx="16" cy="46" rx="6" ry="2" fill="#000" opacity="0.5"/>
  
  <!-- Landscape pin -->
  <path d="M6 16 L10 12 L14 14 L16 10 L18 14 L22 12 L26 16 L26 20 L18 20 L16 46 L14 20 L6 20 Z" 
        fill="none" stroke="#00ff00" stroke-width="2"/>
  
  <!-- Songline pattern (connecting paths) -->
  <path d="M8 14 Q12 13 16 12 Q20 13 24 14" 
        fill="none" stroke="#00ff00" stroke-width="1"/>
  
  <!-- U-shapes (sitting people) -->
  <path d="M10 16 L10 18 L11 18 L11 16" fill="none" stroke="#00ff00" stroke-width="1"/>
  <path d="M15 16 L15 18 L16 18 L16 16" fill="none" stroke="#00ff00" stroke-width="1"/>
  <path d="M21 16 L21 18 L22 18 L22 16" fill="none" stroke="#00ff00" stroke-width="1"/>
  
  <!-- Tracks/paths -->
  <line x1="10" y1="17" x2="22" y2="17" stroke="#00ff00" stroke-width="0.5"/>
  
  <!-- Stars/sky elements -->
  <circle cx="12" cy="13" r="0.5" fill="#00ff00"/>
  <circle cx="20" cy="13" r="0.5" fill="#00ff00"/>
</svg>
